<?xml version="1.0" encoding="UTF-8" standalone="no"?>
<!-- Created with Inkscape (http://www.inkscape.org/) -->

<svg
   xmlns:dc="http://purl.org/dc/elements/1.1/"
   xmlns:cc="http://creativecommons.org/ns#"
   xmlns:rdf="http://www.w3.org/1999/02/22-rdf-syntax-ns#"
   xmlns:svg="http://www.w3.org/2000/svg"
   xmlns="http://www.w3.org/2000/svg"
   xmlns:sodipodi="http://sodipodi.sourceforge.net/DTD/sodipodi-0.dtd"
   xmlns:inkscape="http://www.inkscape.org/namespaces/inkscape"
   width="50mm"
   height="50mm"
   viewBox="0 0 50 50"
   version="1.1"
   id="svg8"
   inkscape:version="0.92.4 (5da689c313, 2019-01-14)"
   sodipodi:docname="favicon.svg"
   inkscape:export-filename="D:\Documents\SUUNTA\OV tool\logo.png"
   inkscape:export-xdpi="130.05"
   inkscape:export-ydpi="130.05">
  <defs
     id="defs2">
    <clipPath
       id="clipPath4534"
       clipPathUnits="userSpaceOnUse">
      <path
         inkscape:connector-curvature="0"
         id="path4532"
         d="M 0,0 H 419.528 V 170.079 H 0 Z" />
    </clipPath>
    <clipPath
       id="clipPath4566"
       clipPathUnits="userSpaceOnUse">
      <path
         inkscape:connector-curvature="0"
         id="path4564"
         d="M 0,0 H 419.528 V 170.079 H 0 Z" />
    </clipPath>
  </defs>
  <sodipodi:namedview
     id="base"
     pagecolor="#ffffff"
     bordercolor="#666666"
     borderopacity="1.0"
     inkscape:pageopacity="0.0"
     inkscape:pageshadow="2"
     inkscape:zoom="1.4"
     inkscape:cx="-195.29902"
     inkscape:cy="90.276228"
     inkscape:document-units="mm"
     inkscape:current-layer="layer1"
     showgrid="false"
     inkscape:window-width="1920"
     inkscape:window-height="1017"
     inkscape:window-x="-8"
     inkscape:window-y="1072"
     inkscape:window-maximized="1" />
  <metadata
     id="metadata5">
    <rdf:RDF>
      <cc:Work
         rdf:about="">
        <dc:format>image/svg+xml</dc:format>
        <dc:type
           rdf:resource="http://purl.org/dc/dcmitype/StillImage" />
        <dc:title></dc:title>
      </cc:Work>
    </rdf:RDF>
  </metadata>
  <g
     inkscape:label="Layer 1"
     inkscape:groupmode="layer"
     id="layer1"
     transform="translate(0,-247)">
    <g
       id="g4660"
       transform="matrix(1.2128295,0,0,1.2128295,-103.23383,-51.186832)"
       style="opacity:1">
      <g
         transform="matrix(0.35277777,0,0,-0.35277777,91.055152,285.56496)"
         id="g4568">
        <path
           inkscape:connector-curvature="0"
           id="path4570"
           style="fill:#6fb473;fill-opacity:1;fill-rule:nonzero;stroke:none"
           d="m 0,0 c -1.119,0 -2.237,0.427 -3.09,1.279 -1.706,1.706 -1.707,4.474 0,6.181 l 24.733,24.734 c 1.663,1.663 2.579,3.873 2.579,6.225 0,2.351 -0.916,4.56 -2.579,6.223 L 6.242,60.044 c -6.849,6.85 -6.849,17.997 0,24.846 l 24.716,24.717 c 1.707,1.705 4.473,1.705 6.18,0 1.707,-1.707 1.707,-4.474 0,-6.181 L 12.422,78.71 c -3.441,-3.442 -3.441,-9.043 0,-12.486 L 27.824,50.822 c 3.313,-3.312 5.138,-7.718 5.138,-12.403 0,-4.686 -1.825,-9.09 -5.138,-12.404 L 3.09,1.279 C 2.237,0.427 1.119,0 0,0" />
      </g>
      <g
         transform="matrix(0.35277777,0,0,-0.35277777,94.768949,273.5533)"
         id="g4572">
        <path
           inkscape:connector-curvature="0"
           id="path4574"
           style="fill:#004353;fill-opacity:1;fill-rule:nonzero;stroke:none"
           d="m 0,0 c -1.118,0 -2.237,0.427 -3.09,1.279 l -13.081,13.08 c -13.265,13.266 -13.265,34.851 0,48.119 l 11.96,11.959 c 1.709,1.707 4.475,1.706 6.181,0 1.707,-1.708 1.706,-4.475 0,-6.18 L -9.99,56.296 c -9.858,-9.858 -9.858,-25.899 0,-35.755 L 3.09,7.46 C 4.796,5.754 4.797,2.986 3.09,1.279 2.237,0.427 1.119,0 0,0" />
      </g>
      <g
         transform="matrix(0.35277777,0,0,-0.35277777,100.36467,285.47779)"
         id="g4576">
        <path
           inkscape:connector-curvature="0"
           id="path4578"
           style="fill:#004353;fill-opacity:1;fill-rule:nonzero;stroke:none"
           d="m 0,0 c -1.119,0 -2.237,0.427 -3.09,1.28 -1.707,1.707 -1.707,4.473 0,6.18 L 8.461,19.012 c 4.774,4.773 7.403,11.119 7.403,17.869 0,6.75 -2.629,13.096 -7.403,17.869 L -4.628,67.839 c -1.707,1.708 -1.707,4.474 0,6.181 1.707,1.706 4.473,1.706 6.181,0 L 14.642,60.931 c 6.424,-6.424 9.962,-14.965 9.962,-24.05 0,-9.085 -3.538,-17.626 -9.962,-24.05 L 3.09,1.28 C 2.237,0.427 1.119,0 0,0" />
      </g>
    </g>
    <flowRoot
       xml:space="preserve"
       id="flowRoot830"
       style="fill:black;fill-opacity:1;stroke:none;font-family:sans-serif;font-style:normal;font-weight:normal;font-size:40px;line-height:1.25;letter-spacing:0px;word-spacing:0px"><flowRegion
         id="flowRegion832"><rect
           id="rect834"
           width="7.8571429"
           height="45.714287"
           x="155"
           y="41.833519" /></flowRegion><flowPara
         id="flowPara836" /></flowRoot>    <text
       xml:space="preserve"
       style="font-style:normal;font-weight:normal;font-size:14.55873775px;line-height:1;font-family:sans-serif;letter-spacing:0px;word-spacing:0px;opacity:1;fill:#004353;fill-opacity:1;stroke:none;stroke-width:0.36396849"
       x="38.383118"
       y="268.73956"
       id="text4668"><tspan
         sodipodi:role="line"
         x="38.383118"
         y="268.73956"
         style="font-style:normal;font-variant:normal;font-weight:bold;font-stretch:normal;font-size:24.06258965px;line-height:1;font-family:sans-serif;-inkscape-font-specification:'sans-serif, Bold';font-variant-ligatures:normal;font-variant-caps:normal;font-variant-numeric:normal;font-feature-settings:normal;text-align:center;writing-mode:lr-tb;text-anchor:middle;fill:#004353;fill-opacity:1;stroke-width:0.36396849"
         id="tspan846">M</tspan><tspan
         sodipodi:role="line"
         x="38.383118"
         y="292.80215"
         style="font-style:normal;font-variant:normal;font-weight:bold;font-stretch:normal;font-size:24.06258965px;line-height:1;font-family:sans-serif;-inkscape-font-specification:'sans-serif, Bold';font-variant-ligatures:normal;font-variant-caps:normal;font-variant-numeric:normal;font-feature-settings:normal;text-align:center;writing-mode:lr-tb;text-anchor:middle;fill:#004353;fill-opacity:1;stroke-width:0.36396849"
         id="tspan832">T</tspan></text>
  </g>
</svg>
